<svg xmlns="http://www.w3.org/2000/svg" version="1.1" xmlns:xlink="http://www.w3.org/1999/xlink" xmlns:svgjs="http://svgjs.com/svgjs" width="1440" height="560" preserveAspectRatio="none" viewBox="0 0 1440 560"><g mask="url(&quot;#SvgjsMask1745&quot;)" fill="none"><rect width="1440" height="560" x="0" y="0" fill="url(#SvgjsLinearGradient1746)"></rect><path d="M389.38 0C411.65 6.49 397.22 34.84 420 40.83C482.53 57.27 493.74 57.39 560 44.87C601.79 36.97 595.47 13.02 636.09 0C665.47 -9.42 668.05 0 700 0C770 0 770 0 840 0C910 0 910 0 980 0C1050 0 1050 0 1120 0C1190 0 1190 0 1260 0C1330 0 1330 0 1400 0C1470 0 1505 -35 1540 0C1575 35 1540 70 1540 140C1540 189.54 1549.89 192.77 1540 239.08C1534.94 262.77 1510.11 256.76 1510.11 280C1510.11 332.64 1528.08 335.01 1540 390.83C1543.03 405.01 1540 405.41 1540 420C1540 478.34 1540.88 478.38 1540 536.67C1539.82 548.38 1548.05 558.31 1537.88 560C1478.05 569.97 1468.94 560 1400 560C1330 560 1330 560 1260 560C1211.16 560 1193.54 585.36 1162.33 560C1123.54 528.49 1139.68 446.25 1120 446.25C1100.67 446.25 1121.64 529.67 1084.31 560C1051.64 586.54 1032.15 560 980 560C924.59 560 887.43 590.61 869.17 560C845.67 520.61 905.84 482.97 896.49 420C891.25 384.73 866.8 363.51 840 363.51C815.56 363.51 815.74 390.79 794 420C745.74 484.84 749.93 489.34 700 551.6C693.8 559.34 691.66 559.4 681.74 560C621.66 563.6 620.87 560 560 560C490 560 490 560 420 560C350 560 350 560 280 560C224.88 560 219.52 571.92 169.75 560C149.52 555.16 154.72 526.48 140 526.48C125.51 526.48 131.19 555.24 111.33 560C61.19 572 24.66 591.01 0 560C-31.01 521.01 0 490 0 420C0 350 0 350 0 280C0 210 0 210 0 140C0 70 -35 35 0 0C35 -35 70 0 140 0C210 0 210 0 280 0C334.69 0 341.65 -13.92 389.38 0" stroke="rgba(51, 121, 194, 0.58)" stroke-width="2"></path><path d="M840 126.54C830.81 126.54 825.11 132.74 825.11 140C825.11 148.44 829.88 157.95 840 157.95C866.49 157.95 898.33 147.93 898.33 140C898.33 132.22 867.42 126.54 840 126.54" stroke="rgba(51, 121, 194, 0.58)" stroke-width="2"></path><path d="M140 266.23C130.29 267.87 125.26 273.08 125.26 280C125.26 286.97 130.25 292.06 140 294C207.62 307.46 215.29 316.22 280 310.8C298.8 309.22 307.02 294.84 307.02 280C307.02 266.39 297.61 255.35 280 253.9C214.1 248.47 207.66 254.82 140 266.23" stroke="rgba(51, 121, 194, 0.58)" stroke-width="2"></path><path d="M980 205.33C961.01 205.33 953.33 245.66 953.33 280C953.33 296.33 964.37 306.67 980 306.67C1005.7 306.67 1036 300.23 1036 280C1036 249.56 1002.35 205.33 980 205.33" stroke="rgba(51, 121, 194, 0.58)" stroke-width="2"></path><path d="M420 382.22C394.55 393.76 377.5 401.95 377.5 420C377.5 436.92 395.8 441.67 420 452.16C487.05 481.23 501.88 508.97 560 499.13C596.81 492.89 609.86 459.81 609.86 420C609.86 378.88 597.64 344.76 560 337.27C502.71 325.87 485.8 352.39 420 382.22" stroke="rgba(51, 121, 194, 0.58)" stroke-width="2"></path><path d="M1400 399.51C1363.13 399.51 1326.96 409.45 1326.96 420C1326.96 430.6 1363.08 441.82 1400 441.82C1449.01 441.82 1498.82 430.59 1498.82 420C1498.82 409.44 1449.06 399.51 1400 399.51" stroke="rgba(51, 121, 194, 0.58)" stroke-width="2"></path><path d="M48.7 140C48.7 78.88 23 74.36 0 8.24C-1.35 4.36 -3.89 0.23 0 0C66.11 -3.89 70 0 140 0C210 0 210 0 280 0C280 0 280 0 280 0C331.93 70 383.87 81.85 383.87 140C383.87 179.14 335.44 178.93 280 194.58C213.51 213.35 202.09 184.31 140 208.85C94.02 227.02 63.86 244.27 63.86 280C63.86 316.01 94.22 330.98 140 352.33C202.29 381.38 216.03 356.06 280 380.8C303.53 389.9 295.03 403.08 315 420C365.03 462.41 364.26 464.94 420 499.46C477.3 534.94 541.08 544.02 541.08 560C541.08 574.29 480.54 560 420 560C350 560 350 560 280 560C246.75 560 239.77 575.54 213.5 560C169.77 534.13 176.37 477.18 140 477.18C104.2 477.18 111.98 534.67 69.16 560C41.98 576.08 11.43 583.15 0 560C-23.15 513.15 0 490 0 420C0 350 0 350 0 280C0 236.66 -13.28 231.51 0 193.33C11.07 161.51 48.7 171.42 48.7 140" stroke="rgba(51, 121, 194, 0.58)" stroke-width="2"></path><path d="M451.11 140C500.63 108.56 505.43 114.59 560 89.74C629.87 57.92 633.97 63.35 700 26.67C714.74 18.48 705.83 2.99 721.54 0C775.83 -10.34 780.77 0 840 0C910 0 910 0 980 0C1050 0 1050 0 1120 0C1190 0 1190 0 1260 0C1330 0 1330 0 1400 0C1470 0 1505 -35 1540 0C1575 35 1540 70 1540 140C1540 162.62 1549.63 165.76 1540 185.23C1515.02 235.76 1507.82 234.61 1470.79 280C1437.82 320.41 1444.88 337.2 1400 356.83C1339.49 383.3 1320.52 392.03 1260 372.2C1203.27 353.61 1214.92 323.44 1165.5 280C1144.92 261.91 1139.74 268.07 1120 249.15C1066.68 198.07 1061.99 199.67 1019.38 140C991.99 101.65 1016.33 69.46 980 53.1C926.64 29.07 901.67 35.86 840 59.23C786.99 79.31 750.64 96.41 750.64 140C750.64 190.64 794.62 194.46 840 247.69C854.3 264.46 870 265.25 870 280C870 292.46 852.4 288.33 840 302.11C789.4 358.33 790.73 360.09 744 420C720.73 449.83 721.7 481.6 700 481.6C678.6 481.6 676 452.52 657.81 420C619.61 351.72 626.37 347.25 587.22 280C577.47 263.25 574.48 252 560 252C543.37 252 544.64 269.52 525 280C474.64 306.86 468.77 326.67 420 326.67C390.48 326.67 368.42 308.09 368.42 280C368.42 234.07 391.21 227.37 420 178.62C432.55 157.37 430.63 153 451.11 140" stroke="rgba(51, 121, 194, 0.58)" stroke-width="2"></path><path d="M957.89 420C961.86 402.22 966.68 390 980 390C998.06 390 1015.92 397.47 1020.65 420C1033.77 482.47 1031.89 504.21 1015.69 560C1011.56 574.21 997.85 560 980 560C961.04 560 944.42 574.84 942.08 560C933.37 504.84 942.9 487.22 957.89 420" stroke="rgba(51, 121, 194, 0.58)" stroke-width="2"></path><path d="M1243.72 560C1243.72 546.88 1242.97 531.09 1260 523.16C1321.11 494.72 1336.6 476.88 1400 487.27C1449.02 495.3 1484.85 539.33 1484.85 560C1484.85 575.69 1442.43 560 1400 560C1330 560 1330 560 1260 560C1251.86 560 1243.72 565.3 1243.72 560" stroke="rgba(51, 121, 194, 0.58)" stroke-width="2"></path><path d="M124.78 140C124.78 128.12 126.75 113.08 140 113.08C184.36 113.08 240 130.26 240 140C240 149.46 188.44 151.48 140 151.48C130.83 151.48 124.78 147.32 124.78 140" stroke="rgba(51, 121, 194, 0.58)" stroke-width="2"></path><path d="M548.33 140C548.33 136.23 553.77 134.62 560 134.62C578.69 134.62 598.18 135.74 598.18 140C598.18 144.43 577.57 152 560 152C552.65 152 548.33 144.92 548.33 140" stroke="rgba(51, 121, 194, 0.58)" stroke-width="2"></path><path d="M1074.06 140C1074.06 85.53 1089.55 75.07 1120 22.4C1130.02 5.07 1135.15 3.18 1155 0C1205.15 -8.02 1207.5 0 1260 0C1302 0 1304.97 -10.07 1344 0C1374.97 7.99 1373.46 36.13 1400 36.13C1421.46 36.13 1415.48 6.33 1440 0C1485.48 -11.74 1516.92 -26.92 1540 0C1566.92 31.41 1548.18 61.45 1540 116.67C1537.81 131.45 1527.88 127.02 1519.26 140C1473.61 208.69 1478.01 212.02 1431.46 280C1418.38 299.1 1421.05 313.31 1400 314.15C1335.32 316.73 1328.78 302.81 1260 286.83C1255.28 285.73 1253 284.64 1253 280C1253 253.22 1255.4 251.83 1260 224C1266.97 181.83 1276.15 180.64 1276.15 140C1276.15 124.64 1268.32 112 1260 112C1251.5 112 1256.49 132.23 1242.5 140C1186.49 171.14 1175.68 189.83 1120 189.83C1091.46 189.83 1074.06 169.24 1074.06 140" stroke="rgba(51, 121, 194, 0.58)" stroke-width="2"></path><path d="M0 276.67C0.68 276.67 0.97 278.57 2.46 280C70.97 345.57 67.31 352.47 140 410.67C154.74 422.47 177.33 415.68 177.33 420C177.33 424.29 153.53 415.29 140 427.89C78.36 485.29 87.58 502.82 26.99 560C17.58 568.88 2.18 571.31 0 560C-11.31 501.31 0 490 0 420C0 350 0 350 0 280C0 278.34 -0.55 276.67 0 276.67" stroke="rgba(51, 121, 194, 0.58)" stroke-width="2"></path><path d="M684.44 280C684.44 256.16 689.66 233.33 700 233.33C711.44 233.33 728 255.23 728 280C728 318.57 711.1 360 700 360C689.32 360 684.44 319.49 684.44 280" stroke="rgba(51, 121, 194, 0.58)" stroke-width="2"></path><path d="M257.25 560C257.25 530.55 252.29 486.42 280 484.17C333.67 479.8 350.23 514.98 420 546.76C433.47 552.9 446.49 556.51 446.49 560C446.49 563.13 433.25 560 420 560C350 560 350 560 280 560C268.63 560 257.25 568.46 257.25 560" stroke="rgba(51, 121, 194, 0.58)" stroke-width="2"></path><path d="M1340 560C1340 552.86 1371.94 532.73 1400 532.73C1417.85 532.73 1431.82 552.25 1431.82 560C1431.82 565.88 1415.91 560 1400 560C1370 560 1340 566.5 1340 560" stroke="rgba(51, 121, 194, 0.58)" stroke-width="2"></path></g><defs><mask id="SvgjsMask1745"><rect width="1440" height="560" fill="#ffffff"></rect></mask><linearGradient x1="0%" y1="50%" x2="100%" y2="50%" gradientUnits="userSpaceOnUse" id="SvgjsLinearGradient1746"><stop stop-color="#0e2a47" offset="0"></stop><stop stop-color="rgba(13, 68, 140, 1)" offset="0.84"></stop></linearGradient></defs></svg>